<svg width="215" height="520" viewBox="0 0 215 520" fill="none" xmlns="http://www.w3.org/2000/svg">
<g clip-path="url(#clip0_2091_5549)">
<g clip-path="url(#clip1_2091_5549)">
<path d="M486 1.00008L105 1.00002C47.5624 1.00001 0.999992 47.5624 0.999982 105L0.999955 260M486 9.00008L105 9.00002C51.9807 9.00001 8.99999 51.9807 8.99998 105L8.99995 260M486 17.0001L105 17C56.399 17 17 56.3989 17 105L17 260M486 25.0001L105 25C60.8172 25 25 60.8172 25 105L25 260M486 33.0001L105 33C65.2355 33 33 65.2355 33 105L33 260M486 41.0001L105 41C69.6538 41 41 69.6538 41 105L41 260M486 49.0001L105 49C74.072 49 49 74.0721 49 105L49 260M486 57.0001L105 57C78.4903 57 57 78.4903 57 105L57 260" stroke="#D1D5DB"/>
</g>
<g clip-path="url(#clip2_2091_5549)">
<path d="M486 519H105C47.5624 519 1 472.438 1 415V260M486 511H105C51.9807 511 9 468.019 9 415V260M486 503H105C56.399 503 17 463.601 17 415V260M486 495H105C60.8172 495 25 459.183 25 415V260M486 487H105C65.2355 487 33 454.765 33 415V260M486 479H105C69.6538 479 41 450.346 41 415V260M486 471H105C74.0721 471 49 445.928 49 415V260M486 463H105C78.4903 463 57 441.51 57 415V260" stroke="#D1D5DB"/>
</g>
</g>
<defs>
<clipPath id="clip0_2091_5549">
<rect width="215" height="520" fill="white" transform="translate(215 520) rotate(-180)"/>
</clipPath>
<clipPath id="clip1_2091_5549">
<rect width="264" height="260" fill="white"/>
</clipPath>
<clipPath id="clip2_2091_5549">
<rect width="264" height="260" fill="white" transform="matrix(1 0 0 -1 0 520)"/>
</clipPath>
</defs>
</svg>
