<svg width="200" height="200" viewBox="0 0 200 200" fill="none" xmlns="http://www.w3.org/2000/svg">
    <g clip-path="url(#clip0_2701_3295)">
        <path fill-rule="evenodd" clip-rule="evenodd"
            d="M100 150L100 132L200 132L200 130L100 130L100 122L200 122L200 120L100 120L100 112L200 112L200 110L100 110L100 102L200 102L200 100L100 100L100 -4.37114e-06L98 -4.45856e-06L98 100L90 100L90 -4.80825e-06L88 -4.89568e-06L88 100L80 100L80 -5.24537e-06L78 -5.33279e-06L78 100L70 100L70 -5.68248e-06L68 -5.7699e-06L68 100L50 100C22.3853 100 -5.34963e-06 122.385 -6.55671e-06 150C-7.76378e-06 177.615 22.3853 200 50 200C77.6147 200 100 177.615 100 150ZM90 110L90 102L98 102L98 110L90 110ZM90 112L90 120L98 120L98 112L90 112ZM90 122L90 130L98 130L98 122L90 122ZM90 132L98 132L98 150C98 176.51 76.5101 198 50 198C23.4899 198 1.99999 176.51 1.99999 150C1.99999 123.49 23.4899 102 50 102L68 102L68 110L50 110C27.9083 110 9.99999 127.908 9.99999 150C9.99999 172.092 27.9083 190 50 190C72.0917 190 90 172.092 90 150L90 132ZM70 110L70 102L78 102L78 110L70 110ZM68 112L50 112C29.0128 112 12 129.013 12 150C12 170.987 29.0128 188 50 188C70.9871 188 88 170.987 88 150L88 132L80 132L80 150C80 166.569 66.5688 180 50 180C33.4312 180 20 166.569 20 150C20 133.431 33.4312 120 50 120L68 120L68 112ZM80 122L80 130L88 130L88 122L80 122ZM88 120L80 120L80 112L88 112L88 120ZM78 120L70 120L70 112L78 112L78 120ZM50 122L68 122L68 130L50 130C38.9541 130 30 138.954 30 150C30 161.046 38.9541 170 50 170C61.0459 170 70 161.046 70 150L70 132L78 132L78 150C78 165.464 65.4642 178 50 178C34.5358 178 22 165.464 22 150C22 134.536 34.5358 122 50 122ZM50 132C40.0587 132 32 140.059 32 150C32 159.941 40.0587 168 50 168C59.9413 168 68 159.941 68 150L68 132L50 132ZM70 130L78 130L78 122L70 122L70 130ZM80 110L80 102L88 102L88 110L80 110Z"
            fill="#D1D5DB" />
    </g>
    <defs>
        <clipPath id="clip0_2701_3295">
            <rect width="200" height="200" fill="white" transform="translate(200) rotate(90)" />
        </clipPath>
    </defs>
</svg>